HIERARCHY
ROOT hip
{
  OFFSET 0 0 0
  CHANNELS 6 Xposition Yposition Zposition Zrotation Yrotation Xrotation
  JOINT abdomen
  {
    OFFSET 0 20.6881 -0.73152
    CHANNELS 3 Zrotation Xrotation Yrotation
    JOINT chest
    {
      OFFSET 0 11.7043 -0.48768
      CHANNELS 3 Zrotation Xrotation Yrotation
      JOINT neck
      {
        OFFSET 0 22.1894 -2.19456
        CHANNELS 3 Zrotation Xrotation Yrotation
        JOINT head
        {
          OFFSET -0.24384 7.07133 1.2192
          CHANNELS 3 Zrotation Xrotation Yrotation
          JOINT leftEye
          {
            OFFSET 4.14528 8.04674 8.04672
            CHANNELS 3 Zrotation Xrotation Yrotation
            End Site
            {
              OFFSET 1 0 0
            }
          }
          JOINT rightEye
          {
            OFFSET -3.6576 8.04674 8.04672
            CHANNELS 3 Zrotation Xrotation Yrotation
            End Site
            {
              OFFSET 1 0 0
            }
          }
        }
      }
      JOINT rCollar
      {
        OFFSET -2.68224 19.2634 -4.8768
        CHANNELS 3 Zrotation Xrotation Yrotation
        JOINT rShldr
        {
          OFFSET -8.77824 -1.95073 1.46304
          CHANNELS 3 Zrotation Xrotation Yrotation
          JOINT rForeArm
          {
            OFFSET -28.1742 -1.7115 0.48768
            CHANNELS 3 Zrotation Xrotation Yrotation
            JOINT rHand
            {
              OFFSET -22.5879 0.773209 7.07136
              CHANNELS 3 Zrotation Xrotation Yrotation
              JOINT rThumb1
              {
                OFFSET -1.2192 -0.487915 3.41376
                CHANNELS 3 Zrotation Xrotation Yrotation
                JOINT rThumb2
                {
                  OFFSET -3.37035 -0.52449 3.41376
                  CHANNELS 3 Zrotation Xrotation Yrotation
                  End Site
                  {
                    OFFSET -1.78271 -1.18214 1.43049
                  }
                }
              }
              JOINT rIndex1
              {
                OFFSET -7.75947 0.938293 5.60832
                CHANNELS 3 Zrotation Xrotation Yrotation
                JOINT rIndex2
                {
                  OFFSET -2.54057 -0.884171 1.56538
                  CHANNELS 3 Zrotation Xrotation Yrotation
                  End Site
                  {
                    OFFSET -1.62519 -0.234802 1.16502
                  }
                }
              }
              JOINT rMid1
              {
                OFFSET -8.24714 1.18213 3.41376
                CHANNELS 3 Zrotation Xrotation Yrotation
                JOINT rMid2
                {
                  OFFSET -3.10165 -0.590103 1.0647
                  CHANNELS 3 Zrotation Xrotation Yrotation
                  End Site
                  {
                    OFFSET -2.48547 -0.328903 0.83742
                  }
                }
              }
              JOINT rRing1
              {
                OFFSET -8.82822 0.546677 1.51678
                CHANNELS 3 Zrotation Xrotation Yrotation
                JOINT rRing2
                {
                  OFFSET -2.60934 -0.819778 -0.0198488
                  CHANNELS 3 Zrotation Xrotation Yrotation
                  End Site
                  {
                    OFFSET -2.33842 -0.294052 0.168128
                  }
                }
              }
              JOINT rPinky1
              {
                OFFSET -8.27202 -0.0477905 -0.4584
                CHANNELS 3 Zrotation Xrotation Yrotation
                JOINT rPinky2
                {
                  OFFSET -1.82734 -0.647385 -0.700984
                  CHANNELS 3 Zrotation Xrotation Yrotation
                  End Site
                  {
                    OFFSET -1.69225 -0.51767 -0.607171
                  }
                }
              }
            }
          }
        }
      }
      JOINT lCollar
      {
        OFFSET 2.68224 19.2634 -4.8768
        CHANNELS 3 Zrotation Xrotation Yrotation
        JOINT lShldr
        {
          OFFSET 8.77824 -1.95073 1.46304
          CHANNELS 3 Zrotation Xrotation Yrotation
          JOINT lForeArm
          {
            OFFSET 28.1742 -1.7115 0.48768
            CHANNELS 3 Zrotation Xrotation Yrotation
            JOINT lHand
            {
              OFFSET 22.5879 0.773209 7.07136
              CHANNELS 3 Zrotation Xrotation Yrotation
              JOINT lThumb1
              {
                OFFSET 1.2192 -0.487915 3.41376
                CHANNELS 3 Zrotation Xrotation Yrotation
                JOINT lThumb2
                {
                  OFFSET 3.37035 -0.52449 3.41376
                  CHANNELS 3 Zrotation Xrotation Yrotation
                  End Site
                  {
                    OFFSET 1.78271 -1.18214 1.43049
                  }
                }
              }
              JOINT lIndex1
              {
                OFFSET 7.75947 0.938293 5.60832
                CHANNELS 3 Zrotation Xrotation Yrotation
                JOINT lIndex2
                {
                  OFFSET 2.54057 -0.884171 1.56538
                  CHANNELS 3 Zrotation Xrotation Yrotation
                  End Site
                  {
                    OFFSET 1.62519 -0.234802 1.16502
                  }
                }
              }
              JOINT lMid1
              {
                OFFSET 8.24714 1.18213 3.41376
                CHANNELS 3 Zrotation Xrotation Yrotation
                JOINT lMid2
                {
                  OFFSET 3.10165 -0.590103 1.0647
                  CHANNELS 3 Zrotation Xrotation Yrotation
                  End Site
                  {
                    OFFSET 2.48547 -0.328903 0.83742
                  }
                }
              }
              JOINT lRing1
              {
                OFFSET 8.82822 0.546677 1.51678
                CHANNELS 3 Zrotation Xrotation Yrotation
                JOINT lRing2
                {
                  OFFSET 2.60934 -0.819778 -0.0198488
                  CHANNELS 3 Zrotation Xrotation Yrotation
                  End Site
                  {
                    OFFSET 2.33842 -0.294052 0.168128
                  }
                }
              }
              JOINT lPinky1
              {
                OFFSET 8.27202 -0.0477905 -0.4584
                CHANNELS 3 Zrotation Xrotation Yrotation
                JOINT lPinky2
                {
                  OFFSET 1.82734 -0.647385 -0.700984
                  CHANNELS 3 Zrotation Xrotation Yrotation
                  End Site
                  {
                    OFFSET 1.69225 -0.51767 -0.607171
                  }
                }
              }
            }
          }
        }
      }
    }
  }
  JOINT rButtock
  {
    OFFSET -8.77824 4.35084 1.2192
    CHANNELS 3 Zrotation Xrotation Yrotation
    JOINT rThigh
    {
      OFFSET 0 -1.70687 -2.19456
      CHANNELS 3 Zrotation Xrotation Yrotation
      JOINT rShin
      {
        OFFSET 0 -36.8199 0.73152
        CHANNELS 3 Zrotation Xrotation Yrotation
        JOINT rFoot
        {
          OFFSET 0.73152 -45.1104 -5.12064
          CHANNELS 3 Zrotation Xrotation Yrotation
          End Site
          {
            OFFSET -1.1221 -3.69964 12.103
          }
        }
      }
    }
  }
  JOINT lButtock
  {
    OFFSET 8.77824 4.35084 1.2192
    CHANNELS 3 Zrotation Xrotation Yrotation
    JOINT lThigh
    {
      OFFSET 0 -1.70687 -2.19456
      CHANNELS 3 Zrotation Xrotation Yrotation
      JOINT lShin
      {
        OFFSET 0 -36.8199 0.73152
        CHANNELS 3 Zrotation Xrotation Yrotation
        JOINT lFoot
        {
          OFFSET -0.73152 -45.1104 -5.12064
          CHANNELS 3 Zrotation Xrotation Yrotation
          End Site
          {
            OFFSET 1.1221 -3.69964 12.103
          }
        }
      }
    }
  }
}
MOTION
Frames:	8
Frame Time:	0.00833333
18.913387 84.70085 -23.184805 -21.649944 -76.64001 28.492437 3.3985088 -3.360148 -11.433566 0.6497191 -9.796515 -3.3559716 -3.4506838 17.338175 1.19145 10.58714 -14.7180395 2.6810591 -0.019896323 0.021396007 0.008476514 -0.04341023 0.023919502 -0.0058874437 0.0058508795 0.00530794 -0.05795344 96.43951 56.87074 -12.425401 -28.40231 -37.8868 80.37664 -0.7265752 -21.92102 -3.5128977 0.033942774 0.007800479 -0.021601917 -0.024306698 -0.02149391 -0.027734514 0.017261937 -0.016641777 0.0060407775 7.718579 5.494878 0.4551163 0.016884407 -0.027659565 0.039919753 2.9031317 0.98421806 0.12106855 0.033780318 -0.027768606 0.009368015 10.238125 0.7122917 0.026185974 -0.051900566 -0.012981515 -0.021974022 2.2197511 -0.72793454 -0.2408131 0.024096036 -0.0062805032 -0.025067389 -88.51609 24.106174 11.176111 28.435951 -33.851913 -73.355835 1.2400732 28.163895 -4.4427533 -0.00750829 0.018102022 0.021685405 0.035447493 -0.03229318 -0.007997655 -0.020000594 -0.017566273 -0.036478866 -7.706083 5.4661436 -0.41165397 0.0070525077 -0.019230066 0.00738482 -2.8717246 0.99936175 -0.10383072 -0.026001565 0.01678916 -0.022093687 -10.188649 0.74491173 -0.06732525 -0.026929753 0.004223969 0.04822451 -2.2250328 -0.7428425 0.22881024 0.0049277954 0.007175055 -0.048853967 1.0430329 -18.937044 -0.144126 -0.23077257 36.513344 0.7035497 -0.7833328 -6.279628 -1.5693438 -0.0150820045 0.008528453 -0.04509267 18.031645 -30.75341 31.402367 0.33521566 46.964005 -1.9414222 23.287083 -19.163467 43.339428
18.539043 84.588425 -26.999039 -91.052345 -83.05169 98.42353 3.5470943 -2.452901 -10.257005 1.6703678 -10.404746 -2.8360252 -1.6524168 15.724703 4.575744 10.184199 -12.752455 9.4626 -0.0069292625 0.047588862 0.0032647005 -0.04377384 -0.002626039 -0.008126071 0.0067570014 0.012995969 -0.036900107 90.375145 56.98085 -7.9704804 -28.442255 -36.522736 77.836876 -0.2885291 -15.625692 -2.3819795 0.046945933 -0.0054955464 -0.011313713 -0.012774067 -0.00849573 4.8190464e-05 0.0049458276 -0.022773186 0.016200574 7.7402916 5.49548 0.4300268 -0.018653184 -0.022501213 0.06951239 2.8857439 0.9955292 0.11329101 0.002770656 -0.008079383 0.013918981 10.236573 0.7114589 0.03838596 -0.030694539 -0.0046786615 -0.029814634 2.1988478 -0.7447232 -0.2679243 0.036033735 0.024139373 -0.04062516 -85.95044 20.538223 21.326138 28.350307 -35.66433 -76.448555 0.8727437 24.765684 -3.71701 -0.010106279 -0.011593145 -0.001365152 0.016042462 -0.026607145 -0.003242993 -0.014286087 -0.02597763 -0.025901884 -7.7343016 5.458587 -0.41207984 -0.011744661 -0.0073031 0.0101498 -2.8827891 1.016948 -0.08496118 -0.013389406 0.022193514 -0.026525307 -10.225757 0.7662858 -0.05416207 -0.018316166 0.008291768 0.038528416 -2.2388995 -0.7501283 0.24455352 0.009366312 0.0016078533 -0.06353191 4.0255737 -18.095255 -3.0625331 -0.18522127 33.59018 0.6210499 1.369492 -9.280629 8.607329 -0.0035481404 -0.019476492 -0.020472597 23.68096 -30.490065 29.130468 0.57277924 51.905045 -1.8798925 16.504314 -15.991521 33.531536
18.448828 83.761765 -29.561079 -129.7 -80.38382 135.22424 3.4528499 0.5538742 -8.944733 1.6076882 -10.926784 -2.3814194 -1.4041882 14.231098 6.426768 10.456112 -13.398429 13.405199 0.012421794 0.040725883 0.007422665 -0.046966564 -0.013289371 -0.015110509 0.0048359362 0.01794984 -0.023092631 88.31246 55.65856 -5.9487863 -28.380358 -34.28763 73.990685 -0.017548695 -8.213128 -1.1660434 0.022326495 0.0018232887 -0.003852012 0.007616891 -0.0046047536 0.010107261 -0.021925464 0.009978378 0.030825108 7.7872496 5.487283 0.41612056 -0.04466208 -0.0065135993 0.046265226 2.869472 0.95815444 0.11506487 -0.00208063 0.008964244 0.03884808 10.238064 0.70254487 0.01763999 -0.010728602 0.0143416105 -0.03639551 2.1896589 -0.77229416 -0.26583418 0.03538543 0.016382853 -0.047291584 -84.82674 17.552698 26.456053 28.301231 -36.98843 -78.696625 0.7884023 23.67262 -3.472603 -0.036265817 -0.031783003 -0.016363753 -0.0014449164 -0.02110049 -0.004565036 -0.017235609 -0.010081462 -0.021865547 -7.7528796 5.45374 -0.42081726 -0.0003827558 -0.002606682 0.020981908 -2.8954504 1.0106003 -0.087716796 -0.0017108496 0.011211545 -0.031437013 -10.259843 0.7541406 -0.034963623 -0.023965469 0.0034838791 0.010865569 -2.2172768 -0.74432725 0.23759383 0.006956918 0.0063482393 -0.06644414 4.311672 -18.239567 -5.2793217 -0.26789835 35.860344 0.6896024 2.048022 -10.136799 11.0243435 0.011623647 -0.03513545 0.0013095787 22.637875 -29.027042 21.637684 0.7972247 54.366535 -1.6619831 9.73338 -14.312964 22.805313
18.483318 82.96835 -30.61465 -138.4593 -78.31255 141.84328 5.472088 3.0865963 -5.9874463 1.7336178 -10.498633 -1.46472 -2.221301 13.641601 6.0206084 10.0212755 -15.405807 12.803235 0.02806606 0.020732783 0.005337784 -0.03797313 -0.009377041 -0.024380742 0.010716897 0.018430479 -0.016591055 87.38898 51.77966 -5.8100452 -28.192493 -32.307133 70.96509 0.066790864 3.0476367 0.4885263 -0.006088653 0.01930167 -0.013679064 0.023800805 0.006441813 0.005933289 -0.016897948 0.042617645 0.04023308 7.8009825 5.4734645 0.41193518 -0.037068427 -0.007939336 0.0255098 2.8720508 0.92309636 0.11550148 0.002899639 0.019653782 0.0626284 10.245357 0.7120907 -0.024131207 -0.0035998619 0.014747675 -0.04299349 2.209277 -0.77101105 -0.2571758 0.0073011415 -0.003400667 -0.026426787 -85.02415 15.44473 28.09246 28.336946 -37.554092 -79.716324 0.81080264 23.557016 -3.4435792 -0.046167098 -0.033161946 -0.011822643 -0.017791638 -0.012321306 -0.012709109 -0.010994846 0.0025754555 -0.0010487547 -7.759161 5.4616394 -0.4290515 0.023289084 -0.011489584 0.022220245 -2.9126167 0.97811484 -0.10226813 0.018349497 0.0028869496 -0.03898747 -10.287616 0.7133995 -0.014994674 -0.020181201 -0.01730376 -0.0153397415 -2.188726 -0.75226414 0.20550163 -0.014556163 0.003685722 -0.049525876 6.112795 -16.645226 -4.277361 -0.28680095 35.992374 0.7032227 1.9004213 -12.957768 8.29013 0.02546607 -0.023558872 0.010969887 20.892265 -28.301924 15.315102 1.0360281 57.469105 -1.6551564 4.4603887 -16.875767 9.996397
18.29225 83.12085 -29.842482 -123.01554 -79.515205 125.16687 7.535749 3.8850827 -1.6855892 2.5088146 -9.775316 -0.102204144 -3.5645227 13.549634 3.808701 8.873747 -16.198172 8.294745 0.03058523 0.0065270527 -0.012428304 -0.018441943 0.0028021825 -0.014658179 0.0040934565 0.0162775 -0.019531326 83.90632 47.254635 -3.0147882 -27.9933 -30.511272 68.30238 -0.06034852 11.07927 1.6195229 -0.023775889 0.026135778 -0.021737559 0.017636072 0.008055491 0.017876267 0.008741403 0.038726218 0.039206356 7.7805786 5.4566317 0.42082363 -0.014047467 -0.018899392 0.014487434 2.8920934 0.92713666 0.10552811 0.013455659 0.027097464 0.061330747 10.271299 0.7420031 -0.050662987 -0.010264403 0.009089076 -0.04694498 2.2132838 -0.74932325 -0.25739673 -0.027117128 -0.010985559 -0.005466322 -86.00394 16.519215 26.751255 28.354042 -38.089603 -80.638725 0.9097565 24.77829 -3.699148 -0.030253287 -0.024644827 0.00535929 -0.0211319 -0.008529779 -0.01017894 0.0047789295 0.024108656 0.007513057 -7.763231 5.4697447 -0.42963737 0.02589724 -0.018272372 0.016710762 -2.9334369 0.9496898 -0.11150924 0.030483196 -0.010746015 -0.032032266 -10.296035 0.69905084 -0.002486176 -0.014936397 -0.044929497 -0.027484346 -2.1932917 -0.76527727 0.16962638 -0.029908257 -0.0024875454 -0.024469743 8.490578 -14.534331 -2.8278902 -0.24744424 35.913723 0.6883883 1.4704185 -14.684137 5.776024 0.027372455 -0.001899551 -0.006625733 17.867912 -27.146416 11.2169695 0.9679086 57.56615 -1.5750158 3.0826285 -20.479223 5.6000447
19.165535 83.01077 -27.358738 -86.64205 -82.06363 88.741234 6.7926326 4.0355525 2.9563189 3.3261735 -9.696168 1.3530055 -5.210698 13.782156 0.3452954 8.997548 -17.326181 1.9569492 0.011294129 0.005283225 -0.018788006 -0.009806852 0.018218966 0.0010348572 -0.019679587 0.0066820583 -0.015650261 79.372505 41.978794 0.89436483 -27.73773 -28.652119 65.3228 -0.13369471 13.158682 1.902719 -0.0161392 0.022454355 -0.01602921 -0.0073990403 -0.014361486 0.023651378 0.01837472 0.019261358 0.032410655 7.744319 5.438625 0.44558 0.004292842 -0.0076289163 0.012775055 2.921895 0.96848714 0.09676998 0.038818046 0.0048174458 0.035110593 10.281204 0.7383894 -0.031203425 -0.0053522824 0.026801657 -0.029871307 2.1992807 -0.7606959 -0.25681877 -0.037800584 0.006207291 -0.008719108 -88.17789 20.498732 25.13924 28.28123 -39.082592 -82.31684 1.1205424 26.968866 -4.1494317 -0.01012235 -0.0143192895 0.031271 -0.02040934 -0.014860122 -0.00927974 0.0017399556 0.037844818 -0.0018248162 -7.7559023 5.487386 -0.44679672 0.0149440365 -0.012913983 0.005130189 -2.9336188 0.94121706 -0.10965802 0.019813249 -0.022938758 -0.0050684237 -10.265732 0.7226491 -0.02021107 0.0034696124 -0.05407431 -0.030072678 -2.2049525 -0.75999403 0.15723678 -0.027810987 -0.015322383 -0.0132758645 8.185586 -13.219939 -2.5905914 -0.23535238 37.04734 0.7008326 0.07986643 -13.532947 1.8624315 0.024604026 0.009285927 -0.041622527 11.782658 -24.651287 6.3536944 0.54078996 51.28881 -1.2636987 5.4958515 -22.519793 11.494864
20.536043 83.45774 -24.694965 -21.157885 -79.71909 24.039158 1.8407716 5.25749 6.3177485 3.135921 -10.842976 2.3101554 -7.410843 14.84521 -3.559872 10.731211 -19.7218 -5.2819386 -0.008120862 0.008680471 -0.02257243 6.36512e-05 0.018754942 0.0046733897 -0.041417163 0.007885645 0.002090536 74.45965 34.286304 6.5799346 -26.892363 -25.492064 60.11316 -0.12496967 13.093292 1.8427025 -0.00711698 0.01642927 -0.0009339169 -0.034035247 -0.0216345 0.024845753 0.023229301 0.02441382 0.031273406 7.739601 5.4397798 0.45265016 0.0021154466 0.013271124 0.022367047 2.9375095 0.9991782 0.10059638 0.06348774 -0.020834787 0.010924863 10.279711 0.7204449 0.012602626 0.0077944044 0.044240985 -0.0107059395 2.1819005 -0.76257855 -0.22799076 -0.014697494 0.022780977 -0.016382597 -88.10813 27.27502 22.859142 28.276981 -39.893246 -83.678474 1.4758618 30.678076 -4.8345737 -0.009329258 -0.010020293 0.039642554 -0.01308352 -0.012513478 -0.010220688 -0.022388624 0.037647054 -0.034349598 -7.7510996 5.491588 -0.44985363 0.017929284 0.0064838775 -0.014611204 -2.931006 0.94352055 -0.09769648 0.011616326 -0.027540233 0.030405123 -10.219994 0.73457545 -0.055844583 0.006060196 -0.07490543 -0.02170618 -2.226511 -0.75672835 0.18014906 -0.024872093 -0.032733504 -0.0008753433 1.5231512 -18.92099 -6.315168 -0.5258689 45.28134 0.9452416 -1.4154042 -5.3410144 -5.9149075 0.015816916 0.011929376 -0.06533991 2.4428713 -21.589548 0.87105274 0.27675182 41.901974 -0.98381305 6.4291844 -22.756102 13.441931
20.705744 83.21028 -22.624199 10.476272 -70.70309 -6.430413 -5.9174595 9.236597 9.079834 1.6482868 -12.6860485 2.8021297 -9.457853 16.825636 -7.380496 13.566652 -23.882738 -11.932942 -0.020665703 0.017392373 -0.009744047 0.018728316 0.011836065 -0.00877778 -0.03924329 0.0057376167 0.011163813 69.88331 22.605877 12.476177 -25.658188 -22.425928 54.93473 -0.042552747 10.595583 1.4969902 0.0040954263 0.019483248 0.007522724 -0.04727316 -0.017820753 0.011266208 0.0293397 0.036674947 0.0307414 7.737295 5.4487753 0.45206934 -0.016006427 0.019877166 0.029165514 2.9310138 0.9966685 0.11761813 0.07138719 -0.034665275 0.0001717336 10.283738 0.7132182 0.054973707 0.012370402 0.03524834 -0.012073894 2.1823137 -0.7541144 -0.20771651 0.008883067 0.020969836 -0.01932923 -87.060844 37.39748 19.624434 28.305485 -40.395576 -84.542435 1.8219765 33.939903 -5.498177 -0.010491943 -0.000523406 0.031433858 -0.010581741 0.0039172927 -0.014296252 -0.04694739 0.022281451 -0.06952259 -7.746579 5.4955444 -0.43445447 0.039562553 0.008205187 -0.015683128 -2.9263618 0.9524053 -0.097704455 0.009194423 -0.025703324 0.052807227 -10.214081 0.7367408 -0.070925176 0.0044688936 -0.09047503 -0.010366957 -2.2386749 -0.7522111 0.22271095 -0.016271021 -0.043739844 -0.0003945791 -14.948294 -31.501377 -17.692852 -1.4270715 61.15913 1.7475544 -1.1417664 2.3215148 -9.275098 0.01589044 -0.001877158 -0.053934805 -7.973171 -19.161346 -2.2458847 0.22474848 35.891933 -0.77918273 4.402718 -21.445103 8.915058
